# xmcd
#
# Track frame offsets: 
#        150
#        12351
#        21869
#        32286
#        44036
#        53379
#        65093
#        77370
#        87520
#        97686
#        107639
#        119572
#        131748
#        142474
#        154694
#        164840
#        176869
#        186275
#        197786
#        208092
#        218494
#        228053
#        240106
#        250428
#        263689
#        273170
#
# Disc length: 3820 seconds
#
# Revision: 1
# Processed by: cddbd v1.5.2PL0 Copyright (c) Steve Scherf et al.
# Submitted via: ExactAudioCopyFreeDBPlugin 1.0
#
DISCID=6b0eea1a
DTITLE=Various Artist - Ain't Gonna Hush: The Queens Of Rhythm and Blue
DTITLE=s [CD3]
DYEAR=2015
DGENRE=R&B
TTITLE0=Annie Williams - I've Got A Man
TTITLE1=Wynona Carr - Till The Well Runs Dry
TTITLE2=Lula Reed - Puddentane
TTITLE3=Tiny Topsy - You Shocked Me
TTITLE4=Big Mama Thornton - They Call Me Big Mama
TTITLE5=Little Esther and Johnny Otis Orchestra - Hound Dog
TTITLE6=Mary Ann Fisher - Wild As You Can Be
TTITLE7=Joyce Harris - No Way Out
TTITLE8=Paula Grimes - You Move Me So
TTITLE9=Dorothy Berry - I Say You're Driving Me Crazy
TTITLE10=Cherri Lynn - Your Money Ain't Long Enough
TTITLE11=Pearl Reaves - You Can't Stay Here (Step It Up And Go)
TTITLE12=Baby Washington - Medicine Man
TTITLE13=Honey Brown - Ain't No Need
TTITLE14=Dakota Staton - A Little You
TTITLE15=Berna-Dean - One Gal In Town, Five Men Hanging Around
TTITLE16=Vicki Evans - Don't Talk That Talk To Me
TTITLE17=Mamie Jenkins - Jump With Me Baby
TTITLE18=Ruth Durand - I'm Wise
TTITLE19=Jessie Mae - Don't Freeze On Me
TTITLE20=Katie Webster - Hoo Wee, Sweet Daddy
TTITLE21=Carmen Taylor - Big Mamou Daddy
TTITLE22=Little Marie Allen - Humdinger
TTITLE23=Little Esther and Johnny Otis Orchestra - Hollerin' And Screami
TTITLE23=n'
TTITLE24=Dorothea Fleming - The Devil Is Mad
TTITLE25=Ernestine Allen - Love For Sale
EXTD=
EXTT0=
EXTT1=
EXTT2=
EXTT3=
EXTT4=
EXTT5=
EXTT6=
EXTT7=
EXTT8=
EXTT9=
EXTT10=
EXTT11=
EXTT12=
EXTT13=
EXTT14=
EXTT15=
EXTT16=
EXTT17=
EXTT18=
EXTT19=
EXTT20=
EXTT21=
EXTT22=
EXTT23=
EXTT24=
EXTT25=
PLAYORDER=
